<?xml version="1.0" encoding="UTF-8"?>
<svg id="Capa_1" xmlns="http://www.w3.org/2000/svg" version="1.1" viewBox="0 0 643 281">
  <!-- Generator: Adobe Illustrator 29.8.1, SVG Export Plug-In . SVG Version: 2.1.1 Build 2)  -->
  <defs>
    <style>
      .st0 {
        fill: #fff;
      }
    </style>
  </defs>
  <path class="st0" d="M404,104v26h23v7c8.51-9.29,22.06-11.24,31.65-2.17,24.36-14.98,52.32,1.4,49.35,30.17h-48c2.03,17.62,23.5,22.79,32.5,7.02l10.44,6.08c-7.65,17.25-30.99,20.79-44.95,8.42-19.35-17.17-5.65-42.47-5.57-42.95,1.2-7.14-19.59-8.71-25.13,7.56-.05.16-.12,1.01-.12,1.82l-.17,40.06h-11v-52l-11.97.08-.03,51.92h-11l-.25-52.06-13.75.06v52h-12v-55l-25.1,54.78-7.24.05-24.67-53.84c-1-2.12-1-2.33-.99,1.5l.31,52.42-12.31.08v-8c-22.22,21.71-54.95,2.63-51.71-27.22.6-5.52,2.96-9.74,4.71-14.78,0,0-.82-2.2-5.72-3.25-7.49-1.6-13.57,1.9-18.69,7.32-2.74,2.9-2.58,5.62-2.58,6.42v39.5h-11v-63h11.01l.11,7c8.84-10.76,23.35-10.25,33.21-1.14,9.2-6.43,19.19-9.17,30.04-4.73,4.4,1.8,6.31,4.65,10.12,6.88l.51-8.01h20.5l19.51,44,19.99-44h36v-26h11,0ZM275.81,140.25c-23.85,1.95-24.35,38.75-2.07,42.5,30.88,5.21,31.35-44.9,2.07-42.5ZM494,156c-2.29-19.92-30.94-19.64-33,0h33Z"/>
  <path class="st0" d="M207,197.5c-.17,1.09-.05,2.95-3.18,7.82-11.94,18.58-45.79,20.09-57.68,1.99l7.85-6.87h0c8.85,11.29,34.04,12.53,39.91-2.04,2.2-5.46,2.1-15.39,2.1-15.39,0,0-3.76,4.22-7.97,5.52-50.08,15.51-57.35-65.23-2-57.07,5.24.77,9.96,6.53,9.96,6.53.23-2.02.13-7.99.13-7.99h10.87v67.5h0ZM196.74,160.54c0-11.17-9.06-20.23-20.23-20.23s-20.23,9.06-20.23,20.23,9.06,20.23,20.23,20.23,20.23-9.06,20.23-20.23Z"/>
  <path class="st0" d="M612.83,162.32c0,18.51-15,33.51-33.51,33.51s-33.51-15-33.51-33.51,15-33.51,33.51-33.51,33.51,15,33.51,33.51ZM599.7,162.37c0-11.27-9.14-20.4-20.4-20.4s-20.4,9.14-20.4,20.4,9.14,20.4,20.4,20.4,20.4-9.14,20.4-20.4Z"/>
  <path class="st0" d="M169,76.5l.02,40.65-13.98-.13-21.65-23.98c-1.05-.19-7.39,5.97-7.39,6.46v17.5h-5v-55h5v29l28.41-28.62,8.12-.1-2.31,2.47s-23.19,22.09-23.18,23.75l25.96,27.5.06-53.81c1.41.02,3.98.02,3.98.02l26.96,42.78v-43h5v55l-4.91-.06-25.18-42.13"/>
  <rect class="st0" x="512" y="105" width="12" height="88"/>
  <rect class="st0" x="531" y="105" width="12" height="88"/>
  <path class="st0" d="M287.5,84.02l16.49,22.98,7.06-44.95,5.57.07-8.74,54.76-3.31.05-17.06-24.07-15.18,23.44h-6.02s-4.45-37.78-7.31-54.29l4.03.08h1.49l6.73,46.49"/>
  <path class="st0" d="M261.39,89.53c0,15.96-12.94,28.9-28.9,28.9s-28.9-12.94-28.9-28.9,12.94-28.9,28.9-28.9,28.9,12.94,28.9,28.9ZM255.98,89.58c0-13-10.54-23.53-23.53-23.53s-23.53,10.54-23.53,23.53,10.54,23.53,23.53,23.53,23.53-10.54,23.53-23.53Z"/>
  <path class="st0" d="M350,105v-43h5v55l-3.99.06-26.01-42.06.1,41.92-6.1.08v-55h4.1s21.49,38.07,26.9,43Z"/>
  <path class="st0" d="M107,105v-43h5v55l-5.33-.09-25.67-42.91v43h-5v-55c1.41.02,3.89.04,3.89.04l27.11,42.96Z"/>
  <path class="st0" d="M38,62v40.5c.29,3.65,3.01,6.25,4.49,7.51,7.8,6.64,21.51,1.36,21.51-8.51v-39.5h5v42.5c.16,3.21-4.01,7.89-5.65,9.35-6.55,5.82-17.42,6.11-24.31.61-3.36-2.68-5.76-6.02-5.97-9.25l-.07-43.21h5Z"/>
  <circle class="st0" cx="372.65" cy="110.35" r="7.64"/>
  <path class="st0" d="M175.52,129.78c-16.99,0-30.76,13.77-30.76,30.76s13.77,30.76,30.76,30.76,30.76-13.77,30.76-30.76-13.77-30.76-30.76-30.76ZM175.52,180.77c-11.17,0-20.23-9.06-20.23-20.23s9.06-20.23,20.23-20.23,20.23,9.06,20.23,20.23-9.06,20.23-20.23,20.23Z"/>
</svg>